<svg width="42" height="42" viewBox="0 0 42 42" fill="none" xmlns="http://www.w3.org/2000/svg">
<circle opacity="0.5" cx="21" cy="21" r="21" fill="#E6EAF5"/>
<path d="M24.5 20.1667H26.25V23.4567L29.0967 25.1017L28.2217 26.6183L24.5 24.4717V20.1667ZM28.1517 15.885C27.1017 12.945 24.3017 10.8333 21 10.8333C17.85 10.8333 15.1667 12.7583 14 15.5C10.78 15.5 8.16669 18.1133 8.16669 21.3333C8.16669 24.5533 10.78 27.1667 14 27.1667H18.2934C19.6117 29.92 22.4117 31.8333 25.6667 31.8333C30.1817 31.8333 33.8334 28.1817 33.8334 23.6667C33.8334 20.0267 31.4534 16.9467 28.1517 15.885ZM14 24.8333C12.0634 24.8333 10.5 23.27 10.5 21.3333C10.5 19.3967 12.0634 17.8333 14 17.8333C14.4317 17.8333 14.8517 17.915 15.2367 18.055C15.4619 16.6892 16.165 15.4479 17.2207 14.5525C18.2763 13.6571 19.6158 13.1659 21 13.1667C22.9017 13.1667 24.5817 14.0883 25.6667 15.5C21.14 15.5 17.5 19.1633 17.5 23.6667C17.5 24.0633 17.535 24.4483 17.5934 24.8333H14ZM25.6667 29.5C22.4467 29.5 19.8334 26.8867 19.8334 23.6667C19.8334 20.4467 22.4467 17.8333 25.6667 17.8333C28.8867 17.8333 31.5 20.4467 31.5 23.6667C31.5 26.8867 28.8867 29.5 25.6667 29.5Z" fill="#0043FF"/>
</svg>
