<svg width="16" height="23" viewBox="0 0 16 23" fill="none" xmlns="http://www.w3.org/2000/svg">
<g clip-path="url(#clip0_225_537)">
<path d="M10.5797 2.30161C10.5298 2.30161 10.4864 2.29439 10.4429 2.27813C10.2207 2.27813 10.034 2.07586 10.034 1.81941V0.91641H6.06902V1.81941C6.06902 2.05238 5.90321 2.25466 5.70198 2.27091C5.65852 2.28716 5.60861 2.29439 5.55871 2.29439H4.0648V4.1636H11.8869V2.29258H10.5652L10.5797 2.30161ZM3.67844 13.5548C4.12275 13.5548 4.48335 13.9593 4.48335 14.4578C4.48335 14.9563 4.12275 15.3608 3.67844 15.3608C3.23413 15.3608 2.87353 14.9563 2.87353 14.4578C2.87353 13.9593 3.23413 13.5548 3.67844 13.5548ZM2.74796 11.328C2.63688 11.142 2.68035 10.8891 2.84777 10.7645C3.01358 10.6399 3.23896 10.6887 3.35003 10.8765L3.54804 11.2052L4.33203 10.136C4.4592 9.96267 4.6878 9.93739 4.84234 10.0801C4.99688 10.2227 5.01942 10.4792 4.89224 10.6526L3.80722 12.1335C3.78308 12.1678 3.7541 12.1985 3.72029 12.2256C3.55448 12.3502 3.32911 12.3014 3.21803 12.1136L2.74796 11.328ZM2.74796 8.20001C2.63688 8.01399 2.68035 7.76115 2.84777 7.63654C3.01358 7.51193 3.23896 7.56069 3.35003 7.74851L3.54804 8.0772L4.33203 7.00625C4.4592 6.83287 4.6878 6.80759 4.84234 6.95026C4.99688 7.09293 5.01942 7.34939 4.89224 7.52276L3.80722 9.00368C3.78308 9.038 3.7541 9.0687 3.72029 9.09579C3.55448 9.2204 3.32911 9.17164 3.21803 8.98382L2.74796 8.20001ZM11.14 22.0755C11.0675 22.1478 10.9677 22.1965 10.8663 22.1965C10.8454 22.1965 10.8228 22.1965 10.8019 22.1893H0.904719C0.660026 22.1893 0.431432 22.0773 0.26562 21.8913C0.0998088 21.7053 0 21.4561 0 21.1725V3.58929C0 3.30756 0.0998088 3.05833 0.26562 2.87231C0.431432 2.68629 0.653587 2.57432 0.904719 2.57432H3.25989V2.07406C3.25989 1.88804 3.32428 1.72008 3.44019 1.59005C3.54804 1.46905 3.69937 1.38778 3.87162 1.38778H5.26572V0.761094C5.26572 0.551598 5.3446 0.365579 5.46695 0.230129C5.58768 0.0928733 5.7535 0.00437927 5.94024 0.00437927H10.1853C10.3721 0.00437927 10.5379 0.0928733 10.6586 0.230129C10.781 0.367385 10.8598 0.551598 10.8598 0.761094V1.38958H12.1171C12.2829 1.38958 12.4326 1.47085 12.5485 1.59185C12.6564 1.71286 12.7288 1.88984 12.7288 2.07586V2.57612H15.084C15.3351 2.57612 15.5573 2.6881 15.7231 2.87411C15.8889 3.06013 15.9887 3.30936 15.9887 3.5911V16.2746C16.0209 16.457 15.9871 16.5979 15.8664 16.7334L11.1899 22.043C11.1754 22.0593 11.1689 22.0665 11.1544 22.0755H11.14ZM10.4574 21.2773C10.4574 15.2055 9.77483 15.9261 15.1613 15.9261V3.58929C15.1613 3.56581 15.1548 3.53331 15.1323 3.51705C15.1178 3.5008 15.0969 3.48454 15.0679 3.48454H12.7127V4.4038C12.7127 4.58982 12.6484 4.75777 12.5324 4.88781C12.4246 5.00881 12.2733 5.09008 12.101 5.09008H3.86357C3.69776 5.09008 3.53999 5.00881 3.43214 4.88781C3.41765 4.87155 3.41121 4.8553 3.39672 4.83904C3.30979 4.71804 3.25345 4.56453 3.25345 4.4038V3.48454H0.898279C0.877352 3.48454 0.848375 3.49177 0.833887 3.51705C0.819398 3.53331 0.80491 3.56581 0.80491 3.58929V21.1725C0.80491 21.205 0.811349 21.2285 0.833887 21.2448C0.848375 21.261 0.869303 21.2773 0.898279 21.2773H10.4509H10.4574ZM6.63729 14.7775C6.41513 14.7775 6.22839 14.5752 6.22839 14.3187C6.22839 14.0695 6.40869 13.86 6.63729 13.86H10.5218C10.7439 13.86 10.9307 14.0623 10.9307 14.3187C10.9307 14.568 10.7504 14.7775 10.5218 14.7775H6.63729ZM6.63729 8.2253C6.41513 8.2253 6.22839 8.02302 6.22839 7.76657C6.22839 7.51734 6.40869 7.30785 6.63729 7.30785H12.6194C12.8415 7.30785 13.0283 7.51012 13.0283 7.76657C13.0283 8.0158 12.848 8.2253 12.6194 8.2253H6.63729ZM6.63729 11.5014C6.41513 11.5014 6.22839 11.2991 6.22839 11.0427C6.22839 10.7934 6.40869 10.5839 6.63729 10.5839H12.6194C12.8415 10.5839 13.0283 10.7862 13.0283 11.0427C13.0283 11.2919 12.848 11.5014 12.6194 11.5014H6.63729Z" fill="#7A07A3"/>
</g>
<defs>
<clipPath id="clip0_225_537">
<rect width="16" height="22.1921" fill="white" transform="translate(0 0.00437927)"/>
</clipPath>
</defs>
</svg>
