<svg width="20" height="20" viewBox="0 0 20 20" fill="none" xmlns="http://www.w3.org/2000/svg">
<g clip-path="url(#clip0_225_421)">
<path d="M16.6697 8.89648C17.1775 9.13737 17.6365 9.4401 18.0466 9.80469C18.4568 10.1693 18.8083 10.5827 19.1013 11.0449C19.3943 11.5072 19.6156 12.002 19.7654 12.5293C19.9151 13.0566 19.9932 13.6035 19.9998 14.1699C19.9998 14.9707 19.8468 15.7259 19.5408 16.4355C19.2348 17.1452 18.8181 17.7637 18.2908 18.291C17.7634 18.8184 17.1449 19.235 16.4353 19.541C15.7257 19.847 14.9705 20 14.1697 20C13.6033 20 13.0564 19.9219 12.5291 19.7656C12.0017 19.6094 11.5102 19.388 11.0544 19.1016C10.5987 18.8151 10.1853 18.4668 9.81421 18.0566C9.44312 17.6465 9.13713 17.1842 8.89624 16.6699H-0.000244141V1.66992H3.32983V0H4.99976V1.66992H11.6697V0H13.3298V1.66992H16.6697V8.89648ZM1.66968 5H14.9998V3.33008H1.66968V5ZM8.38843 15C8.34937 14.7266 8.32983 14.4499 8.32983 14.1699C8.32983 13.3626 8.48283 12.6042 8.78882 11.8945C9.09481 11.1849 9.51147 10.5664 10.0388 10.0391C10.5662 9.51172 11.1847 9.09505 11.8943 8.78906C12.6039 8.48307 13.3624 8.33008 14.1697 8.33008C14.4496 8.33008 14.7263 8.34961 14.9998 8.38867V6.66992H1.66968V15H8.38843ZM14.1697 18.3301C14.7426 18.3301 15.2797 18.2227 15.781 18.0078C16.2823 17.793 16.725 17.4935 17.1091 17.1094C17.4932 16.7253 17.7895 16.2858 17.9978 15.791C18.2061 15.2962 18.3168 14.7559 18.3298 14.1699C18.3298 13.597 18.2224 13.0566 18.0076 12.5488C17.7927 12.041 17.4965 11.5983 17.1189 11.2207C16.7413 10.8431 16.2986 10.5469 15.7908 10.332C15.283 10.1172 14.7426 10.0065 14.1697 10C13.5903 10 13.0499 10.1074 12.5486 10.3223C12.0473 10.5371 11.6046 10.8366 11.2205 11.2207C10.8363 11.6048 10.5401 12.0475 10.3318 12.5488C10.1235 13.0501 10.0128 13.5905 9.99976 14.1699C9.99976 14.7493 10.1072 15.2897 10.322 15.791C10.5369 16.2923 10.8363 16.7318 11.2205 17.1094C11.6046 17.487 12.0473 17.7832 12.5486 17.998C13.0499 18.2129 13.5903 18.3236 14.1697 18.3301ZM14.9998 13.3301H16.6697V15H13.3298V11.6699H14.9998V13.3301Z" fill="#0043FF"/>
</g>
<defs>
<clipPath id="clip0_225_421">
<rect width="20" height="20" fill="white" transform="translate(-0.000244141)"/>
</clipPath>
</defs>
</svg>
