<svg width="24" height="26" viewBox="0 0 24 26" fill="none" xmlns="http://www.w3.org/2000/svg">
<path d="M10 12.1529C12.3531 12.1529 14.2667 10.1385 14.2667 7.66158C14.2667 5.18465 12.3531 3.17032 10 3.17032C7.64693 3.17032 5.73333 5.18465 5.73333 7.66158C5.73333 10.1385 7.64693 12.1529 10 12.1529ZM11.6 13.2757H8.4C4.8704 13.2757 2 16.2972 2 20.0126V21.1354H18V20.0126C18 16.2972 15.1296 13.2757 11.6 13.2757Z" fill="#7A07A3"/>
<path d="M17.5478 11.0966C18.1646 9.91342 18.431 8.53999 18.3084 7.17507C18.1271 5.14133 17.1184 3.34357 15.4696 2.11353L14.3504 4.01275C15.4837 4.85862 16.1734 6.06358 16.2929 7.40307C16.3481 8.02561 16.2792 8.65416 16.0914 9.24299C15.9036 9.83182 15.6015 10.3661 15.2072 10.8071L14 12.1659L15.6387 12.7074C19.9248 14.121 19.9744 18.9728 19.9744 19.0218H22C22 16.9824 21.0318 12.997 17.5478 11.0966Z" fill="#7A07A3"/>
</svg>
