<svg width="24" height="26" viewBox="0 0 24 26" fill="none" xmlns="http://www.w3.org/2000/svg">
<path d="M7 11.655H9V13.7686H7V11.655ZM7 15.8821H9V17.9956H7V15.8821ZM11 11.655H13V13.7686H11V11.655ZM11 15.8821H13V17.9956H11V15.8821ZM15 11.655H17V13.7686H15V11.655ZM15 15.8821H17V17.9956H15V15.8821Z" fill="#7A07A3"/>
<path d="M5 23.2795H19C20.103 23.2795 21 22.3316 21 21.166V6.37119C21 5.20558 20.103 4.25766 19 4.25766H17V2.14412H15V4.25766H9V2.14412H7V4.25766H5C3.897 4.25766 3 5.20558 3 6.37119V21.166C3 22.3316 3.897 23.2795 5 23.2795ZM19 8.48473L19.001 21.166H5V8.48473H19Z" fill="#7A07A3"/>
</svg>
