<svg width="16" height="21" viewBox="0 0 16 21" fill="none" xmlns="http://www.w3.org/2000/svg">
<g clip-path="url(#clip0_208_742)">
<path d="M10.5797 2.17383C10.5298 2.17383 10.4864 2.16699 10.4429 2.15161C10.2207 2.15161 10.034 1.96021 10.034 1.71753V0.863037H6.06902V1.71753C6.06902 1.93799 5.90321 2.12939 5.70198 2.14478C5.65852 2.16016 5.60861 2.16699 5.55871 2.16699H4.0648V3.93579H11.8869V2.16528H10.5652L10.5797 2.17383ZM3.67844 12.8225C4.12275 12.8225 4.48335 13.2053 4.48335 13.677C4.48335 14.1487 4.12275 14.5315 3.67844 14.5315C3.23413 14.5315 2.87353 14.1487 2.87353 13.677C2.87353 13.2053 3.23413 12.8225 3.67844 12.8225ZM2.74796 10.7153C2.63688 10.5393 2.68035 10.3 2.84777 10.1821C3.01358 10.0642 3.23896 10.1104 3.35003 10.2881L3.54804 10.5991L4.33203 9.5874C4.4592 9.42334 4.6878 9.39941 4.84234 9.53442C4.99688 9.66943 5.01942 9.91211 4.89224 10.0762L3.80722 11.4775C3.78308 11.51 3.7541 11.5391 3.72029 11.5647C3.55448 11.6826 3.32911 11.6365 3.21803 11.4587L2.74796 10.7153ZM2.74796 7.75537C2.63688 7.57935 2.68035 7.34009 2.84777 7.22217C3.01358 7.10425 3.23896 7.15039 3.35003 7.32812L3.54804 7.63916L4.33203 6.62573C4.4592 6.46167 4.6878 6.43774 4.84234 6.57275C4.99688 6.70776 5.01942 6.95044 4.89224 7.1145L3.80722 8.51587C3.78308 8.54834 3.7541 8.57739 3.72029 8.60303C3.55448 8.72095 3.32911 8.6748 3.21803 8.49707L2.74796 7.75537ZM11.14 20.8855C11.0675 20.9539 10.9677 21 10.8663 21C10.8454 21 10.8228 21 10.8019 20.9932H0.904719C0.660026 20.9932 0.431432 20.8872 0.26562 20.7112C0.0998088 20.5352 0 20.2993 0 20.031V3.39233C0 3.12573 0.0998088 2.88989 0.26562 2.71387C0.431432 2.53784 0.653587 2.43188 0.904719 2.43188H3.25989V1.9585C3.25989 1.78247 3.32428 1.62354 3.44019 1.50049C3.54804 1.38599 3.69937 1.30908 3.87162 1.30908H5.26572V0.716064C5.26572 0.517822 5.3446 0.341797 5.46695 0.213623C5.58768 0.0837402 5.7535 0 5.94024 0H10.1853C10.3721 0 10.5379 0.0837402 10.6586 0.213623C10.781 0.343506 10.8598 0.517822 10.8598 0.716064V1.31079H12.1171C12.2829 1.31079 12.4326 1.3877 12.5485 1.5022C12.6564 1.6167 12.7288 1.78418 12.7288 1.96021V2.43359H15.084C15.3351 2.43359 15.5573 2.53955 15.7231 2.71558C15.8889 2.8916 15.9887 3.12744 15.9887 3.39404V15.3962C16.0209 15.5688 15.9871 15.7021 15.8664 15.8303L11.1899 20.8547C11.1754 20.8701 11.1689 20.877 11.1544 20.8855H11.14ZM10.4574 20.1301C10.4574 14.3845 9.77483 15.0664 15.1613 15.0664V3.39233C15.1613 3.37012 15.1548 3.33936 15.1323 3.32397C15.1178 3.30859 15.0969 3.29321 15.0679 3.29321H12.7127V4.16309C12.7127 4.33911 12.6484 4.49805 12.5324 4.62109C12.4246 4.7356 12.2733 4.8125 12.101 4.8125H3.86357C3.69776 4.8125 3.53999 4.7356 3.43214 4.62109C3.41765 4.60571 3.41121 4.59033 3.39672 4.57495C3.30979 4.46045 3.25345 4.31519 3.25345 4.16309V3.29321H0.898279C0.877352 3.29321 0.848375 3.30005 0.833887 3.32397C0.819398 3.33936 0.80491 3.37012 0.80491 3.39233V20.031C0.80491 20.0618 0.811349 20.084 0.833887 20.0994C0.848375 20.1147 0.869303 20.1301 0.898279 20.1301H10.4509H10.4574ZM6.63729 13.9795C6.41513 13.9795 6.22839 13.7881 6.22839 13.5454C6.22839 13.3096 6.40869 13.1113 6.63729 13.1113H10.5218C10.7439 13.1113 10.9307 13.3027 10.9307 13.5454C10.9307 13.7812 10.7504 13.9795 10.5218 13.9795H6.63729ZM6.63729 7.7793C6.41513 7.7793 6.22839 7.58789 6.22839 7.34521C6.22839 7.10938 6.40869 6.91113 6.63729 6.91113H12.6194C12.8415 6.91113 13.0283 7.10254 13.0283 7.34521C13.0283 7.58105 12.848 7.7793 12.6194 7.7793H6.63729ZM6.63729 10.8794C6.41513 10.8794 6.22839 10.688 6.22839 10.4453C6.22839 10.2095 6.40869 10.0112 6.63729 10.0112H12.6194C12.8415 10.0112 13.0283 10.2026 13.0283 10.4453C13.0283 10.6812 12.848 10.8794 12.6194 10.8794H6.63729Z" fill="#7A07A3"/>
</g>
<defs>
<clipPath id="clip0_208_742">
<rect width="16" height="21" fill="white"/>
</clipPath>
</defs>
</svg>
