<svg width="24" height="24" viewBox="0 0 24 24" fill="none" xmlns="http://www.w3.org/2000/svg">
<path d="M10 11.5C12.3531 11.5 14.2667 9.59387 14.2667 7.25C14.2667 4.90612 12.3531 3 10 3C7.64693 3 5.73333 4.90612 5.73333 7.25C5.73333 9.59387 7.64693 11.5 10 11.5ZM11.6 12.5625H8.4C4.8704 12.5625 2 15.4217 2 18.9375V20H18V18.9375C18 15.4217 15.1296 12.5625 11.6 12.5625Z" fill="#7A07A3"/>
<path d="M17.5478 10.5005C18.1646 9.38089 18.431 8.08124 18.3084 6.78964C18.1271 4.86516 17.1184 3.16397 15.4696 2L14.3504 3.7972C15.4837 4.59763 16.1734 5.73786 16.2929 7.00539C16.3481 7.5945 16.2792 8.18928 16.0914 8.74647C15.9036 9.30367 15.6015 9.80929 15.2072 10.2265L14 11.5124L15.6387 12.0248C19.9248 13.3625 19.9744 17.9536 19.9744 18H22C22 16.0701 21.0318 12.2988 17.5478 10.5005Z" fill="#7A07A3"/>
</svg>
