<svg width="604" height="205" viewBox="0 0 604 205" fill="none" xmlns="http://www.w3.org/2000/svg">
<path opacity="0.2" fill-rule="evenodd" clip-rule="evenodd" d="M0.649719 204.341V61.2881C0.649719 61.2881 33.9914 24.3712 52.3534 29.7549C66.8498 29.7549 78.9301 68.9792 104.54 61.2881C106.66 61.2881 133.533 60.519 156.727 23.602C170.74 11.2963 187.473 -5.75835 205.532 2.06716C234.014 14.4094 236.606 81.5978 261.101 70.0233C292.027 55.4104 296.376 28.2167 313.771 28.2167C327.784 28.2167 344.697 114.356 364.025 105.976C390.119 115.125 400.75 82.2737 416.696 60.519C426.843 46.6752 458.252 28.2167 469.849 28.2167C481.446 32.0622 511.405 48.2134 520.103 60.519C569.874 120.835 574.706 105.976 574.706 105.976L603.699 204.341H0.649719Z" fill="url(#paint0_linear_225_517)"/>
<defs>
<linearGradient id="paint0_linear_225_517" x1="182.499" y1="14.3727" x2="182.499" y2="163.589" gradientUnits="userSpaceOnUse">
<stop stop-color="#3354F4"/>
<stop offset="1" stop-color="white" stop-opacity="0.01"/>
</linearGradient>
</defs>
</svg>
