<svg width="42" height="42" viewBox="0 0 42 42" fill="none" xmlns="http://www.w3.org/2000/svg">
<circle opacity="0.5" cx="21" cy="21" r="21" fill="#E6EAF5"/>
<g clip-path="url(#clip0_225_404)">
<path fill-rule="evenodd" clip-rule="evenodd" d="M18.7863 11.2487C20.1641 10.936 21.5925 10.9187 22.9775 11.1981C24.3624 11.4775 25.6725 12.0472 26.8213 12.8697C27.9701 13.6922 28.9315 14.7487 29.6423 15.9698C30.3531 17.1908 30.7971 18.5486 30.945 19.9538C30.971 20.2011 30.8977 20.4486 30.7413 20.6419C30.5848 20.8351 30.3579 20.9584 30.1106 20.9844C29.8633 21.0104 29.6158 20.9371 29.4225 20.7806C29.2292 20.6242 29.106 20.3973 29.08 20.15C28.9193 18.6233 28.3294 17.1733 27.3785 15.9681C26.4277 14.7628 25.1549 13.8516 23.7075 13.34C22.2601 12.8284 20.6974 12.7373 19.2004 13.0772C17.7033 13.4172 16.3332 14.1743 15.2488 15.2609C14.1643 16.3475 13.4099 17.719 13.0729 19.2167C12.7358 20.7144 12.83 22.277 13.3445 23.7234C13.8589 25.1697 14.7726 26.4408 15.9797 27.3893C17.1869 28.3377 18.638 28.9248 20.165 29.0825C20.2884 29.094 20.4082 29.1298 20.5176 29.1879C20.6271 29.246 20.7239 29.3253 20.8025 29.421C20.8811 29.5168 20.94 29.6272 20.9757 29.7458C21.0114 29.8644 21.0232 29.989 21.0105 30.1122C20.9978 30.2354 20.9608 30.3549 20.9016 30.4638C20.8424 30.5726 20.7622 30.6687 20.6657 30.7463C20.5692 30.824 20.4582 30.8818 20.3392 30.9163C20.2203 30.9508 20.0956 30.9614 19.9725 30.9475C17.6136 30.7048 15.4178 29.6318 13.7769 27.9199C12.136 26.208 11.1568 23.9687 11.0141 21.6017C10.8714 19.2347 11.5745 16.894 12.9979 14.9974C14.4213 13.1008 16.4724 11.7718 18.785 11.2475L18.7863 11.2487ZM21 14.75C21.2486 14.75 21.4871 14.8488 21.6629 15.0246C21.8387 15.2004 21.9375 15.4389 21.9375 15.6875V22.25H16.9375C16.6889 22.25 16.4504 22.1512 16.2746 21.9754C16.0988 21.7996 16 21.5611 16 21.3125C16 21.0639 16.0988 20.8254 16.2746 20.6496C16.4504 20.4738 16.6889 20.375 16.9375 20.375H20.0625V15.6875C20.0625 15.4389 20.1613 15.2004 20.3371 15.0246C20.5129 14.8488 20.7514 14.75 21 14.75ZM23.775 23.775C23.9508 23.5994 24.1891 23.5008 24.4375 23.5008C24.6859 23.5008 24.9242 23.5994 25.1 23.775L27.25 25.925L29.4 23.775C29.4858 23.6829 29.5893 23.609 29.7043 23.5578C29.8193 23.5065 29.9435 23.479 30.0693 23.4768C30.1952 23.4745 30.3203 23.4977 30.437 23.5448C30.5537 23.592 30.6598 23.6622 30.7488 23.7512C30.8378 23.8402 30.908 23.9463 30.9552 24.063C31.0023 24.1797 31.0255 24.3048 31.0232 24.4307C31.021 24.5565 30.9935 24.6807 30.9422 24.7957C30.891 24.9107 30.8171 25.0142 30.725 25.1L28.575 27.25L30.725 29.4C30.8171 29.4858 30.891 29.5893 30.9422 29.7043C30.9935 29.8193 31.021 29.9435 31.0232 30.0693C31.0255 30.1952 31.0023 30.3203 30.9552 30.437C30.908 30.5537 30.8378 30.6598 30.7488 30.7488C30.6598 30.8378 30.5537 30.908 30.437 30.9552C30.3203 31.0023 30.1952 31.0255 30.0693 31.0232C29.9435 31.021 29.8193 30.9935 29.7043 30.9422C29.5893 30.891 29.4858 30.8171 29.4 30.725L27.25 28.575L25.1 30.725C25.0142 30.8171 24.9107 30.891 24.7957 30.9422C24.6807 30.9935 24.5565 31.021 24.4307 31.0232C24.3048 31.0255 24.1797 31.0023 24.063 30.9552C23.9463 30.908 23.8402 30.8378 23.7512 30.7488C23.6622 30.6598 23.592 30.5537 23.5448 30.437C23.4977 30.3203 23.4745 30.1952 23.4768 30.0693C23.479 29.9435 23.5065 29.8193 23.5578 29.7043C23.609 29.5893 23.6829 29.4858 23.775 29.4L25.925 27.25L23.775 25.1C23.5994 24.9242 23.5008 24.6859 23.5008 24.4375C23.5008 24.1891 23.5994 23.9508 23.775 23.775Z" fill="#0043FF"/>
</g>
<defs>
<clipPath id="clip0_225_404">
<rect width="20" height="20" fill="white" transform="translate(11 11)"/>
</clipPath>
</defs>
</svg>
