<svg width="17" height="29" viewBox="0 0 17 29" fill="none" xmlns="http://www.w3.org/2000/svg">
<g opacity="0.8">
<path d="M2.32266 3.69101H2.40205L2.42005 3.61369C2.62524 2.73242 3.00462 1.97479 3.50121 1.44229C3.99727 0.910372 4.58266 0.631998 5.17543 0.631998C5.7682 0.631998 6.35359 0.910372 6.84965 1.44229C7.34624 1.97479 7.72562 2.73242 7.93081 3.61369L7.94882 3.69101H8.02821H15.2559C15.4802 3.69101 15.7088 3.82613 15.8852 4.09353C16.0617 4.3609 16.164 4.72948 16.164 5.11865C16.164 5.50782 16.0617 5.8764 15.8852 6.14378C15.7088 6.41118 15.4802 6.54629 15.2559 6.54629H8.02821H7.94882L7.93081 6.62361C7.72562 7.50488 7.34624 8.26252 6.84965 8.79501C6.35359 9.32693 5.7682 9.60531 5.17543 9.60531C4.58266 9.60531 3.99727 9.32693 3.50121 8.79501C3.00462 8.26252 2.62524 7.50488 2.42005 6.62361L2.40205 6.54629H2.32266H1.14324C0.918971 6.54629 0.69036 6.41118 0.513909 6.14378C0.337474 5.8764 0.235193 5.50782 0.235193 5.11865C0.235193 4.72948 0.337474 4.3609 0.513909 4.09353C0.69036 3.82613 0.918971 3.69101 1.14324 3.69101H2.32266ZM8.37094 12.8568H8.45034L8.46834 12.7795C8.67353 11.8982 9.05291 11.1406 9.5495 10.6081C10.0456 10.0762 10.6309 9.79782 11.2237 9.79782C11.8165 9.79782 12.4019 10.0762 12.8979 10.6081C13.3945 11.1406 13.7739 11.8982 13.9791 12.7795L13.9971 12.8568H14.0765H15.2559C15.4802 12.8568 15.7088 12.9919 15.8852 13.2593C16.0617 13.5267 16.164 13.8953 16.164 14.2845C16.164 14.6736 16.0617 15.0422 15.8852 15.3096C15.7088 15.577 15.4802 15.7121 15.2559 15.7121H14.0765H13.9971L13.9791 15.7894C13.7739 16.6707 13.3945 17.4283 12.8979 17.9608C12.4019 18.4928 11.8165 18.7711 11.2237 18.7711C10.6309 18.7711 10.0456 18.4928 9.5495 17.9608C9.05291 17.4283 8.67353 16.6707 8.46834 15.7894L8.45034 15.7121H8.37094H1.14324C0.918972 15.7121 0.69036 15.577 0.513909 15.3096C0.337474 15.0422 0.235193 14.6736 0.235193 14.2845C0.235193 13.8953 0.337474 13.5267 0.513909 13.2593C0.690359 12.9919 0.918971 12.8568 1.14324 12.8568H8.37094ZM2.32266 22.0227H2.40205L2.42005 21.9453C2.62524 21.0641 3.00462 20.3064 3.50121 19.7739C3.99727 19.242 4.58266 18.9636 5.17543 18.9636C5.7682 18.9636 6.35359 19.242 6.84965 19.7739C7.34624 20.3064 7.72562 21.0641 7.93081 21.9453L7.94882 22.0227H8.02821H15.2559C15.4802 22.0227 15.7088 22.1578 15.8852 22.4252C16.0617 22.6925 16.164 23.0611 16.164 23.4503C16.164 23.8395 16.0617 24.208 15.8852 24.4754C15.7088 24.7428 15.4802 24.8779 15.2559 24.8779H8.02821H7.94882L7.93081 24.9553C7.72562 25.8365 7.34624 26.5942 6.84965 27.1266C6.35359 27.6586 5.7682 27.9369 5.17543 27.9369C4.58266 27.9369 3.99727 27.6586 3.50121 27.1266C3.00462 26.5942 2.62524 25.8365 2.42005 24.9553L2.40205 24.8779H2.32266H1.14324C0.918971 24.8779 0.690359 24.7428 0.513909 24.4754C0.337474 24.208 0.235193 23.8395 0.235193 23.4503C0.235193 23.0611 0.337474 22.6925 0.513909 22.4252C0.690359 22.1578 0.918971 22.0227 1.14324 22.0227H2.32266ZM5.17543 3.49101C4.865 3.49101 4.58081 3.6778 4.37917 3.98337C4.17751 4.28897 4.06738 4.69751 4.06738 5.11865C4.06738 5.53979 4.17751 5.94833 4.37917 6.25393C4.58081 6.55951 4.865 6.74629 5.17543 6.74629C5.48586 6.74629 5.77005 6.55951 5.97169 6.25393C6.17335 5.94833 6.28348 5.53979 6.28348 5.11865C6.28348 4.69751 6.17335 4.28897 5.97169 3.98337C5.77005 3.6778 5.48586 3.49101 5.17543 3.49101ZM11.2237 12.6568C10.9133 12.6568 10.6291 12.8436 10.4275 13.1492C10.2258 13.4548 10.1157 13.8633 10.1157 14.2845C10.1157 14.7056 10.2258 15.1142 10.4275 15.4198C10.6291 15.7253 10.9133 15.9121 11.2237 15.9121C11.5342 15.9121 11.8183 15.7253 12.02 15.4198C12.2216 15.1142 12.3318 14.7056 12.3318 14.2845C12.3318 13.8633 12.2216 13.4548 12.02 13.1492C11.8183 12.8436 11.5342 12.6568 11.2237 12.6568ZM5.17543 21.8227C4.865 21.8227 4.58081 22.0094 4.37917 22.315C4.17751 22.6206 4.06738 23.0292 4.06738 23.4503C4.06738 23.8714 4.17751 24.28 4.37917 24.5856C4.58081 24.8911 4.865 25.0779 5.17543 25.0779C5.48586 25.0779 5.77005 24.8911 5.97169 24.5856C6.17335 24.28 6.28348 23.8714 6.28348 23.4503C6.28348 23.0292 6.17335 22.6206 5.97169 22.315C5.77005 22.0094 5.48586 21.8227 5.17543 21.8227Z" fill="#252C58" stroke="white" stroke-width="0.2"/>
</g>
</svg>
