<svg width="49" height="61" viewBox="0 0 49 61" fill="none" xmlns="http://www.w3.org/2000/svg">
<path d="M24.5 47.2294C20.9557 47.2294 17.5567 45.4951 15.0505 42.408C12.5443 39.321 11.1364 35.134 11.1364 30.7682C11.1364 26.4025 12.5443 22.2155 15.0505 19.1284C17.5567 16.0414 20.9557 14.3071 24.5 14.3071C28.0443 14.3071 31.4434 16.0414 33.9495 19.1284C36.4557 22.2155 37.8636 26.4025 37.8636 30.7682C37.8636 35.134 36.4557 39.321 33.9495 42.408C31.4434 45.4951 28.0443 47.2294 24.5 47.2294ZM24.5 41.7423C26.8628 41.7423 29.1289 40.5861 30.7997 38.5281C32.4705 36.4701 33.4091 33.6787 33.4091 30.7682C33.4091 27.8577 32.4705 25.0664 30.7997 23.0084C29.1289 20.9503 26.8628 19.7941 24.5 19.7941C22.1372 19.7941 19.8711 20.9503 18.2003 23.0084C16.5295 25.0664 15.5909 27.8577 15.5909 30.7682C15.5909 33.6787 16.5295 36.4701 18.2003 38.5281C19.8711 40.5861 22.1372 41.7423 24.5 41.7423ZM22.2727 0.589417H26.7273V8.82H22.2727V0.589417ZM22.2727 52.7164H26.7273V60.947H22.2727V52.7164ZM5.60159 11.3687L8.75095 7.48939L13.475 13.3084L10.3256 17.1878L5.60159 11.3687ZM35.525 48.228L38.6744 44.3487L43.3984 50.1677L40.249 54.0471L35.525 48.228ZM40.249 7.48665L43.3984 11.3687L38.6744 17.1878L35.525 13.3084L40.249 7.48939V7.48665ZM10.3256 44.3487L13.475 48.228L8.75095 54.0471L5.60159 50.1677L10.3256 44.3487ZM49 28.0247V33.5118H42.3182V28.0247H49ZM6.68182 28.0247V33.5118H0V28.0247H6.68182Z" fill="#C8CAD5"/>
</svg>
